<?xml version="1.0" encoding="UTF-8" standalone="no"?>
<!DOCTYPE svg PUBLIC "-//W3C//DTD SVG 1.1//EN" "http://www.w3.org/Graphics/SVG/1.1/DTD/svg11.dtd">
<svg width="100%" height="100%" viewBox="0 0 1629 329" version="1.1" xmlns="http://www.w3.org/2000/svg" xmlns:xlink="http://www.w3.org/1999/xlink" xml:space="preserve" xmlns:serif="http://www.serif.com/" style="fill-rule:evenodd;clip-rule:evenodd;stroke-linejoin:round;stroke-miterlimit:2;">
    <g transform="matrix(1,0,0,1,-3220.36,-1640.42)">
        <g transform="matrix(5.55556,0,0,5.55556,0,0)">
            <g transform="matrix(1,0,0,1,661.175,322.914)">
                <path d="M0,-20.958C3.268,-20.871 4.369,-20.652 4.406,-16.811L4.406,-6.112C4.521,-1.746 4.482,0.35 0,0L0,-20.958ZM2.318,5.894C4.369,5.894 6.496,5.675 8.244,4.366C10.182,2.968 11.055,0.568 11.094,-2.707L11.094,-17.247C11.094,-20.39 10.676,-23.578 8.092,-25.323C5.928,-26.765 3.002,-26.852 0.57,-26.852L-6.686,-26.852L-6.686,5.894L2.318,5.894Z" style="fill:rgb(0,174,239);"/>
            </g>
        </g>
        <g transform="matrix(5.55556,0,0,5.55556,0,0)">
            <g transform="matrix(1,0,0,1,0,-2503.13)">
                <path d="M682.032,2799.19L675.991,2799.19L675.991,2805.09L682.032,2805.09L682.032,2799.19ZM682.032,2807.49L675.991,2807.49L675.991,2831.94L682.032,2831.94L682.032,2807.49Z" style="fill:rgb(0,174,239);"/>
            </g>
        </g>
        <g transform="matrix(5.55556,0,0,5.55556,0,0)">
            <g transform="matrix(1,0,0,1,701.823,315.535)">
                <path d="M0,2.183L0,-4.802C0,-10.087 -3.914,-11.92 -8.131,-11.876C-12.803,-11.832 -16.26,-9.78 -16.26,-3.492L-16.26,6.462C-16.26,12.051 -12.461,14.103 -8.131,14.06C-2.887,13.972 0.076,11.09 -0.229,4.804L-6.23,4.804C-6.346,6.855 -6.117,9.17 -8.357,9.038C-9.688,8.951 -10.219,7.816 -10.219,6.462L-10.219,2.183L0,2.183ZM-10.219,-2.4L-10.219,-4.016C-10.219,-5.719 -9.801,-7.291 -8.092,-7.291C-6.535,-7.291 -6.041,-5.676 -6.041,-4.802L-6.041,-2.4L-10.219,-2.4Z" style="fill:rgb(0,174,239);"/>
            </g>
        </g>
        <g transform="matrix(5.55556,0,0,5.55556,0,0)">
            <g transform="matrix(1,0,0,1,719.075,321.647)">
                <path d="M0,-10.042C0.229,-15.456 -3.303,-17.989 -7.711,-17.989C-11.928,-17.989 -15.574,-15.718 -15.574,-10.435C-15.574,-8.645 -15.08,-7.204 -14.055,-5.85C-12.156,-3.362 -8.773,-2.313 -6.342,-0.829C-5.85,-0.393 -5.545,0.306 -5.545,1.048C-5.545,2.62 -6.42,3.363 -7.711,3.363C-8.621,3.363 -9.191,2.882 -9.496,2.184C-9.838,1.441 -9.914,0.524 -9.877,-0.305L-15.65,-0.305C-15.879,5.589 -12.535,7.947 -7.748,7.947C-3.303,7.947 0.305,5.633 0.305,0.175C0.305,-5.632 -3.912,-6.812 -7.824,-8.863C-8.736,-9.386 -9.686,-10.042 -9.686,-11.352C-9.686,-12.793 -8.85,-13.403 -7.672,-13.403C-6.684,-13.403 -6.229,-12.967 -6,-12.357C-5.734,-11.701 -5.734,-10.872 -5.658,-10.042L0,-10.042Z" style="fill:rgb(0,174,239);"/>
            </g>
        </g>
        <g transform="matrix(5.55556,0,0,5.55556,0,0)">
            <g transform="matrix(1,0,0,1,737.388,315.535)">
                <path d="M0,2.183L0,-4.802C0,-10.087 -3.912,-11.92 -8.129,-11.876C-12.803,-11.832 -16.26,-9.78 -16.26,-3.492L-16.26,6.462C-16.26,12.051 -12.461,14.103 -8.129,14.06C-2.889,13.972 0.076,11.09 -0.229,4.804L-6.23,4.804C-6.344,6.855 -6.117,9.17 -8.357,9.038C-9.688,8.951 -10.219,7.816 -10.219,6.462L-10.219,2.183L0,2.183ZM-10.219,-2.4L-10.219,-4.016C-10.219,-5.719 -9.801,-7.291 -8.092,-7.291C-6.535,-7.291 -6.041,-5.676 -6.041,-4.802L-6.041,-2.4L-10.219,-2.4Z" style="fill:rgb(0,174,239);"/>
            </g>
        </g>
        <g transform="matrix(5.55556,0,0,5.55556,0,0)">
            <g transform="matrix(-1,0,0,1,1487.67,-2503.13)">
                <rect x="740.814" y="2799.19" width="6.039" height="32.746" style="fill:rgb(0,174,239);"/>
            </g>
        </g>
        <g transform="matrix(5.55556,0,0,5.55556,0,0)">
            <g transform="matrix(1,0,0,1,758.868,307.022)">
                <path d="M0,10.827L0,14.32C0,18.642 2.582,22.573 8.699,22.573C14.246,22.573 17.285,19.079 17.285,12.792C17.285,8.819 16.373,6.636 14.816,4.977C13.258,3.317 11.092,2.181 8.584,0.348C7.256,-0.699 6.383,-1.704 6.572,-3.669C6.723,-5.11 7.521,-5.983 8.889,-5.851C11.092,-5.677 11.016,-3.058 11.092,-1.136L17.246,-1.136C17.551,-7.292 14.586,-11.746 8.775,-11.746C3.609,-11.746 0.379,-8.602 0.379,-2.446C0.379,0.435 1.102,2.444 2.316,4.103C3.57,5.762 5.318,7.028 7.371,8.382C9.117,9.604 11.092,10.652 11.092,13.403C11.092,15.062 10.408,16.678 8.85,16.678C6.723,16.678 6.191,15.018 6.191,13.141L6.191,10.827L0,10.827Z" style="fill:rgb(0,174,239);"/>
            </g>
        </g>
        <g transform="matrix(5.55556,0,0,5.55556,0,0)">
            <g transform="matrix(1,0,0,1,794.811,315.535)">
                <path d="M0,2.183L0,-4.802C0,-10.087 -3.912,-11.92 -8.129,-11.876C-12.801,-11.832 -16.26,-9.78 -16.26,-3.492L-16.26,6.462C-16.26,12.051 -12.461,14.103 -8.129,14.06C-2.887,13.972 0.076,11.09 -0.227,4.804L-6.229,4.804C-6.344,6.855 -6.117,9.17 -8.357,9.038C-9.688,8.951 -10.219,7.816 -10.219,6.462L-10.219,2.183L0,2.183ZM-10.219,-2.4L-10.219,-4.016C-10.219,-5.719 -9.801,-7.291 -8.092,-7.291C-6.533,-7.291 -6.041,-5.676 -6.041,-4.802L-6.041,-2.4L-10.219,-2.4Z" style="fill:rgb(0,174,239);"/>
            </g>
        </g>
        <g transform="matrix(5.55556,0,0,5.55556,0,0)">
            <g transform="matrix(1,0,0,1,797.554,328.109)">
                <path d="M0,-23.751L0,0.699L6.041,0.699L6.041,-14.364C6.154,-16.372 6.838,-16.765 8.547,-16.765C9.156,-16.765 9.764,-16.722 10.371,-16.59L10.371,-24.45C7.863,-24.45 6.383,-22.661 5.699,-20.041L5.623,-20.041L5.623,-23.751L0,-23.751Z" style="fill:rgb(0,174,239);"/>
            </g>
        </g>
        <g transform="matrix(5.55556,0,0,5.55556,0,0)">
            <g transform="matrix(1,0,0,1,815.554,328.808)">
                <path d="M0,-24.45L-6.078,-24.45L-1.443,0L5.471,0L10.145,-24.45L4.254,-24.45L2.09,-8.644L2.014,-8.644L0,-24.45Z" style="fill:rgb(0,174,239);"/>
            </g>
        </g>
        <g transform="matrix(5.55556,0,0,5.55556,0,0)">
            <g transform="matrix(1,0,0,1,0,-2503.13)">
                <path d="M834.169,2799.19L828.128,2799.19L828.128,2805.09L834.169,2805.09L834.169,2799.19ZM834.169,2807.49L828.128,2807.49L828.128,2831.94L834.169,2831.94L834.169,2807.49Z" style="fill:rgb(0,174,239);"/>
            </g>
        </g>
        <g transform="matrix(5.55556,0,0,5.55556,0,0)">
            <g transform="matrix(1,0,0,1,853.581,319.815)">
                <path d="M0,-6.376C0.34,-13.099 -2.014,-16.069 -7.979,-16.156C-12.652,-16.156 -15.463,-14.061 -15.463,-7.772L-15.463,2.182C-15.463,7.771 -12.311,9.78 -7.979,9.78C-7.066,9.78 -6.535,9.691 -5.965,9.649C-3.346,9.343 -1.064,7.945 -0.268,4.89C0.074,3.58 0.227,0.523 0.227,-0.918L-5.623,-0.918C-5.623,0.916 -5.244,4.758 -7.484,4.758C-9.043,4.758 -9.424,3.449 -9.424,1.921L-9.424,-8.166C-9.424,-9.737 -9.156,-11.134 -7.6,-11.134C-6.687,-11.134 -6.23,-10.611 -5.965,-9.607C-5.812,-8.69 -5.852,-7.729 -5.738,-6.812L-5.699,-6.376L0,-6.376Z" style="fill:rgb(0,174,239);"/>
            </g>
        </g>
        <g transform="matrix(5.55556,0,0,5.55556,0,0)">
            <g transform="matrix(1,0,0,1,872.808,315.535)">
                <path d="M0,2.183L0,-4.802C0,-10.087 -3.912,-11.92 -8.129,-11.876C-12.801,-11.832 -16.258,-9.78 -16.258,-3.492L-16.258,6.462C-16.258,12.051 -12.459,14.103 -8.129,14.06C-2.887,13.972 0.076,11.09 -0.227,4.804L-6.229,4.804C-6.344,6.855 -6.115,9.17 -8.355,9.038C-9.686,8.951 -10.217,7.816 -10.217,6.462L-10.217,2.183L0,2.183ZM-10.217,-2.4L-10.217,-4.016C-10.217,-5.719 -9.799,-7.291 -8.09,-7.291C-6.533,-7.291 -6.039,-5.676 -6.039,-4.802L-6.039,-2.4L-10.217,-2.4Z" style="fill:rgb(0,174,239);"/>
            </g>
        </g>
        <g transform="matrix(5.55556,0,0,5.55556,0,0)">
            <g transform="matrix(1,0,0,1,0,-2436.43)">
                <rect x="654.489" y="2773.59" width="218.318" height="17.248" style="fill:rgb(147,149,152);"/>
            </g>
        </g>
        <g transform="matrix(5.55556,0,0,5.55556,0,0)">
            <g transform="matrix(1,0,0,1,771.319,342.527)">
                <path d="M0,7.772C2.992,7.772 4.949,6.648 4.949,3.724C4.949,1.166 3.084,0 0.078,0L-4.016,0L-4.016,7.772L0,7.772ZM-0.959,1.814L-0.375,1.814C1.258,1.814 1.891,2.245 1.891,3.864C1.891,5.333 1.113,5.958 -0.311,5.958L-0.959,5.958L-0.959,1.814Z" style="fill:white;"/>
            </g>
        </g>
        <g transform="matrix(5.55556,0,0,5.55556,0,0)">
            <g transform="matrix(1,0,0,1,785.313,342.527)">
                <path d="M0,7.772L0,5.958L-4.73,5.958L-4.73,4.739L-0.883,4.739L-0.883,2.925L-4.73,2.925L-4.73,1.814L-0.184,1.814L-0.184,0L-7.787,0L-7.787,7.772L0,7.772Z" style="fill:white;"/>
            </g>
        </g>
        <g transform="matrix(5.55556,0,0,5.55556,0,0)">
            <g transform="matrix(1,0,0,1,799.839,347.331)">
                <path d="M0,-1.835C-0.244,-3.833 -1.838,-5.009 -4.687,-5.009C-7.291,-5.009 -9.338,-3.443 -9.338,-0.928C-9.338,1.597 -7.473,3.174 -4.391,3.174C-1.93,3.174 -0.205,1.965 0.066,-0.043L-2.873,-0.043C-2.992,0.702 -3.457,1.274 -4.441,1.274C-5.996,1.274 -6.281,0.248 -6.281,-0.842C-6.281,-2.343 -5.633,-3.109 -4.559,-3.109C-3.6,-3.109 -2.992,-2.646 -2.9,-1.835L0,-1.835Z" style="fill:white;"/>
            </g>
        </g>
        <g transform="matrix(5.55556,0,0,5.55556,0,0)">
            <g transform="matrix(1,0,0,1,803.433,342.527)">
                <path d="M0,7.772L0.35,6.746L3.393,6.746L3.756,7.772L6.801,7.772L3.457,0L0.35,0L-2.994,7.772L0,7.772ZM2.861,5.128L0.932,5.128L1.877,2.342L2.861,5.128Z" style="fill:white;"/>
            </g>
        </g>
        <g transform="matrix(5.55556,0,0,5.55556,0,0)">
            <g transform="matrix(1,0,0,1,813.901,342.527)">
                <path d="M0,7.772L0,5.138L-0.064,3.929L-0.195,2.785L-0.168,2.785L1.527,7.772L3.652,7.772L5.35,2.785L5.375,2.785L5.219,4.188L5.18,5.397L5.18,7.772L7.928,7.772L7.928,0L4.234,0L2.59,4.846L0.945,0L-2.746,0L-2.746,7.772L0,7.772Z" style="fill:white;"/>
            </g>
        </g>
        <g transform="matrix(5.55556,0,0,5.55556,0,0)">
            <g transform="matrix(-1,0,0,1,1650.24,-2435.17)">
                <rect x="823.592" y="2777.7" width="3.057" height="7.772" style="fill:white;"/>
            </g>
        </g>
        <g transform="matrix(5.55556,0,0,5.55556,0,0)">
            <g transform="matrix(1,0,0,1,833.038,350.505)">
                <path d="M0,-8.183C-2.9,-8.183 -4.883,-6.597 -4.883,-4.157C-4.883,-1.512 -2.928,0 0,0C2.76,0 4.896,-1.491 4.896,-4.136C4.896,-6.186 3.33,-8.183 0,-8.183M-0.025,-6.284C1.32,-6.316 1.84,-5.193 1.84,-4.136C1.84,-2.85 1.32,-1.9 0,-1.9C-1.463,-1.9 -1.826,-3.142 -1.826,-4.136C-1.826,-5.118 -1.412,-6.284 -0.025,-6.284" style="fill:white;"/>
            </g>
        </g>
        <g transform="matrix(5.55556,0,0,5.55556,0,0)">
            <g transform="matrix(1,0,0,1,842.198,350.299)">
                <path d="M0,-7.772L-2.863,-7.772L-2.863,0L0.064,0L0.064,-2.46L-0.053,-4.23L3.277,0L6.139,0L6.139,-7.772L3.213,-7.772L3.213,-5.3L3.328,-3.53L0,-7.772Z" style="fill:white;"/>
            </g>
        </g>
        <g transform="matrix(5.55556,0,0,5.55556,0,0)">
            <g transform="matrix(1,0,0,1,858.001,342.527)">
                <path d="M0,7.772L0,5.958L-4.727,5.958L-4.727,4.739L-0.881,4.739L-0.881,2.925L-4.727,2.925L-4.727,1.814L-0.18,1.814L-0.18,0L-7.783,0L-7.783,7.772L0,7.772Z" style="fill:white;"/>
            </g>
        </g>
        <g transform="matrix(5.55556,0,0,5.55556,0,0)">
            <g transform="matrix(1,0,0,1,867.253,348.044)">
                <path d="M0,-3.261C-0.221,-4.621 -1.398,-5.722 -3.99,-5.722C-6.322,-5.722 -8.031,-4.891 -8.031,-3.239C-8.031,-0.271 -2.668,-1.081 -2.668,0.095C-2.668,0.463 -3.174,0.669 -3.938,0.669C-4.234,0.669 -4.559,0.603 -4.805,0.474C-5.064,0.344 -5.246,0.14 -5.311,-0.141L-8.238,-0.141C-8.174,1.262 -6.566,2.461 -4.105,2.461C-1.541,2.461 0.26,1.585 0.26,-0.217C0.26,-3.045 -5.104,-2.322 -5.104,-3.487C-5.104,-3.768 -4.805,-3.93 -4.133,-3.93C-3.834,-3.93 -3.563,-3.887 -3.342,-3.79C-3.121,-3.693 -2.953,-3.531 -2.9,-3.261L0,-3.261Z" style="fill:white;"/>
            </g>
        </g>
        <g transform="matrix(5.55556,0,0,5.55556,0,0)">
            <g transform="matrix(1,0,0,1,663.776,345.237)">
                <path d="M0,2.352C1.424,2.352 1.631,2.687 1.631,3.702C1.631,4.392 1.709,4.889 1.787,5.062L4.883,5.062L4.883,4.825C4.52,4.825 4.559,4.479 4.559,3.465C4.559,1.899 3.963,1.705 2.979,1.402C4.066,1.154 4.547,0.398 4.547,-0.498C4.547,-2.009 3.523,-2.71 0.414,-2.71L-3.99,-2.71L-3.99,5.062L-0.934,5.062L-0.934,2.352L0,2.352ZM-0.934,-0.897L0.492,-0.897C1.203,-0.897 1.723,-0.638 1.723,-0.086C1.723,0.453 1.217,0.647 0.271,0.647L-0.934,0.647L-0.934,-0.897Z" style="fill:white;"/>
            </g>
        </g>
        <g transform="matrix(5.55556,0,0,5.55556,0,0)">
            <g transform="matrix(1,0,0,1,678.591,342.527)">
                <path d="M0,7.772L0,5.958L-4.729,5.958L-4.729,4.739L-0.881,4.739L-0.881,2.925L-4.729,2.925L-4.729,1.814L-0.182,1.814L-0.182,0L-7.785,0L-7.785,7.772L0,7.772Z" style="fill:white;"/>
            </g>
        </g>
        <g transform="matrix(5.55556,0,0,5.55556,0,0)">
            <g transform="matrix(1,0,0,1,683.716,342.527)">
                <path d="M0,7.772L0,5.354L1.543,5.354C4.223,5.354 5.416,4.296 5.416,2.624C5.416,1.025 4.119,0 1.439,0L-3.057,0L-3.057,7.772L0,7.772ZM0,3.541L0,1.814L0.869,1.814C1.516,1.814 2.5,1.91 2.5,2.634C2.5,3.304 1.982,3.541 1.271,3.541L0,3.541Z" style="fill:white;"/>
            </g>
        </g>
        <g transform="matrix(5.55556,0,0,5.55556,0,0)">
            <g transform="matrix(1,0,0,1,692.198,342.527)">
                <path d="M0,7.772L0.35,6.746L3.393,6.746L3.756,7.772L6.799,7.772L3.457,0L0.35,0L-2.992,7.772L0,7.772ZM2.861,5.128L0.932,5.128L1.877,2.342L2.861,5.128Z" style="fill:white;"/>
            </g>
        </g>
        <g transform="matrix(5.55556,0,0,5.55556,0,0)">
            <g transform="matrix(1,0,0,1,704.669,345.237)">
                <path d="M0,2.352C1.424,2.352 1.631,2.687 1.631,3.702C1.631,4.392 1.709,4.889 1.785,5.062L4.883,5.062L4.883,4.825C4.52,4.825 4.559,4.479 4.559,3.465C4.559,1.899 3.963,1.705 2.979,1.402C4.066,1.154 4.545,0.398 4.545,-0.498C4.545,-2.009 3.521,-2.71 0.414,-2.71L-3.99,-2.71L-3.99,5.062L-0.934,5.062L-0.934,2.352L0,2.352ZM-0.934,-0.897L0.492,-0.897C1.203,-0.897 1.721,-0.638 1.721,-0.086C1.721,0.453 1.217,0.647 0.271,0.647L-0.934,0.647L-0.934,-0.897Z" style="fill:white;"/>
            </g>
        </g>
        <g transform="matrix(5.55556,0,0,5.55556,0,0)">
            <g transform="matrix(1,0,0,1,713.849,342.527)">
                <path d="M0,7.772L0.348,6.746L3.393,6.746L3.756,7.772L6.801,7.772L3.459,0L0.348,0L-2.992,7.772L0,7.772ZM2.861,5.128L0.932,5.128L1.877,2.342L2.861,5.128Z" style="fill:white;"/>
            </g>
        </g>
        <g transform="matrix(5.55556,0,0,5.55556,0,0)">
            <g transform="matrix(1,0,0,1,731.163,347.331)">
                <path d="M0,-1.835C-0.246,-3.833 -1.84,-5.009 -4.689,-5.009C-7.293,-5.009 -9.34,-3.443 -9.34,-0.928C-9.34,1.597 -7.475,3.174 -4.391,3.174C-1.93,3.174 -0.207,1.965 0.064,-0.043L-2.875,-0.043C-2.992,0.702 -3.459,1.274 -4.443,1.274C-5.996,1.274 -6.283,0.248 -6.283,-0.842C-6.283,-2.343 -5.635,-3.109 -4.561,-3.109C-3.602,-3.109 -2.992,-2.646 -2.902,-1.835L0,-1.835Z" style="fill:white;"/>
            </g>
        </g>
        <g transform="matrix(5.55556,0,0,5.55556,0,0)">
            <g transform="matrix(-1,0,0,1,1469.75,-2435.17)">
                <rect x="733.348" y="2777.7" width="3.057" height="7.772" style="fill:white;"/>
            </g>
        </g>
        <g transform="matrix(5.55556,0,0,5.55556,0,0)">
            <g transform="matrix(1,0,0,1,743.538,350.505)">
                <path d="M0,-8.183C-2.9,-8.183 -4.883,-6.596 -4.883,-4.157C-4.883,-1.512 -2.928,0 0,0C2.76,0 4.896,-1.491 4.896,-4.136C4.896,-6.186 3.33,-8.183 0,-8.183M-0.025,-6.284C1.322,-6.316 1.84,-5.193 1.84,-4.136C1.84,-2.85 1.322,-1.9 0,-1.9C-1.465,-1.9 -1.826,-3.142 -1.826,-4.136C-1.826,-5.118 -1.412,-6.284 -0.025,-6.284" style="fill:white;"/>
            </g>
        </g>
        <g transform="matrix(5.55556,0,0,5.55556,0,0)">
            <g transform="matrix(1,0,0,1,753.442,350.299)">
                <path d="M0,-7.772L-2.863,-7.772L-2.863,0L0.062,0L0.062,-2.46L-0.053,-4.23L3.275,0L6.141,0L6.141,-7.772L3.211,-7.772L3.211,-5.3L3.328,-3.53L0,-7.772Z" style="fill:white;"/>
            </g>
        </g>
        <g transform="matrix(5.55556,0,0,5.55556,0,0)">
            <g transform="matrix(1,0,0,1,743.495,341.561)">
                <path d="M0,-1.682L2.857,-1.682L1.414,0L-0.857,0L0,-1.682Z" style="fill:white;fill-rule:nonzero;"/>
            </g>
        </g>
        <g transform="matrix(5.55556,0,0,5.55556,0,0)">
            <g transform="matrix(1,0,0,1,613.7,297.451)">
                <path d="M0,55.564C-1.957,50.186 -1.445,44.513 0.953,39.779L-4.961,41.931L-7.109,36.029L-1.33,29.096L-8.662,31.765L-10.068,27.9L-13.92,29.304L-18.459,16.834L-18.471,16.839L-27.164,20.003L-27.957,17.824L-19.088,14.596C-20.352,8.489 -17.91,2.26 -13.023,-1.394L-34.035,-1.394L-34.035,56.958L-18.801,56.958L-20.895,51.21C-24.217,50.998 -27.26,48.866 -28.471,45.539C-29.52,42.661 -28.943,39.586 -27.211,37.321C-27.197,37.309 -27.189,37.294 -27.18,37.28L-27.125,37.21C-27.08,37.163 -27.023,37.125 -26.959,37.101C-26.746,37.024 -26.514,37.119 -26.416,37.314L-24.6,42.29C-23.861,44.314 -21.625,45.356 -19.604,44.62C-17.582,43.883 -16.541,41.647 -17.275,39.626L-19.057,34.737L-19.041,34.722C-19.047,34.712 -19.051,34.701 -19.055,34.691C-19.137,34.462 -19.02,34.21 -18.791,34.127C-18.746,34.11 -18.699,34.102 -18.654,34.1C-15.795,34.674 -13.295,36.679 -12.223,39.621C-11.012,42.948 -11.969,46.538 -14.377,48.836L-11.418,56.958L0.508,56.958L0,55.564Z" style="fill:rgb(147,149,152);fill-rule:nonzero;"/>
            </g>
        </g>
        <g transform="matrix(5.55556,0,0,5.55556,0,0)">
            <g transform="matrix(1,0,0,1,625.214,319.833)">
                <path d="M0,-16.459L8.367,6.529C9.881,6.621 11.367,6.892 12.803,7.317L12.803,-23.776L-5.447,-23.776C-3.039,-21.98 -1.105,-19.492 0,-16.459" style="fill:rgb(147,149,152);fill-rule:nonzero;"/>
            </g>
        </g>
    </g>
</svg>
