<svg id="Layer_1" enable-background="new 0 0 512 512" height="512" viewBox="0 0 512 512" width="512" xmlns="http://www.w3.org/2000/svg"><g><g fill="#90ea8f"><path d="m261.513 2.461c-1.422-1.565-3.438-2.458-5.552-2.458s-4.13.893-5.552 2.458c-.291.32-29.427 32.52-58.023 74.625-1.171 1.724-1.572 3.857-1.106 5.889.466 2.031 1.755 3.777 3.561 4.82.466.269 10.237 5.814 26.394 7.79-.502 9.386-1.329 27.146-1.827 49.852-.086 3.894 2.823 7.205 6.696 7.622 7.875.847 18.408 1.613 30.759 1.613 8.813 0 18.553-.39 28.908-1.418 3.898-.387 6.843-3.71 6.757-7.627-.498-22.797-1.331-40.628-1.835-50.041 16.156-1.975 25.926-7.52 26.392-7.789 1.806-1.042 3.095-2.789 3.561-4.82.466-2.032.064-4.165-1.106-5.889-28.6-42.108-57.736-74.307-58.027-74.627z"/><path d="m136.833 72.603c-1.424-1.748-3.559-2.762-5.813-2.762s-4.39 1.014-5.814 2.762c-.786.966-19.491 24.009-38.42 55.071-2.118 3.476-1.077 8.007 2.346 10.209.769.495 6.64 4.113 16.357 5.812-.334 7.237-.823 19.564-1.127 34.992-.075 3.853 2.78 7.135 6.606 7.594 5.286.634 12.358 1.207 20.647 1.207 5.915 0 12.449-.292 19.396-1.061 3.855-.427 6.749-3.723 6.674-7.602-.305-15.494-.797-27.873-1.133-35.131 9.717-1.699 15.588-5.317 16.356-5.812 3.423-2.203 4.464-6.734 2.346-10.209-18.928-31.061-37.634-54.105-38.421-55.07z"/><path d="m425.351 127.674c-18.929-31.062-37.635-54.105-38.422-55.071-1.424-1.748-3.559-2.762-5.813-2.762s-4.39 1.014-5.813 2.762c-.787.965-19.493 24.009-38.421 55.071-2.118 3.476-1.077 8.007 2.346 10.209.769.495 6.64 4.113 16.357 5.812-.334 7.237-.823 19.564-1.127 34.992-.075 3.853 2.78 7.135 6.606 7.594 5.286.634 12.358 1.207 20.647 1.207 5.915 0 12.449-.292 19.396-1.061 3.855-.427 6.749-3.723 6.674-7.602-.305-15.494-.798-27.873-1.133-35.131 9.717-1.699 15.588-5.317 16.356-5.812 3.424-2.202 4.465-6.733 2.347-10.208z"/></g><g><g><path d="m139.725 509.161c-1.42 1.79-3.589 2.83-5.869 2.83h-126.351c-2.29 0-4.459-1.04-5.879-2.83-1.42-1.8-1.95-4.14-1.43-6.369 3.09-13.219 2.53-25.398 2.04-36.148-.67-14.489-1.3-28.188 8.269-38.207 8.609-9.009 23.866-13.419 50.172-14.249 3.17-.11 6.499-.16 9.999-.16 32.535 0 50.522 4.31 60.171 14.409 9.569 10.019 8.939 23.718 8.279 38.207-.5 10.749-1.06 22.928 2.03 36.148.518 2.229-.011 4.569-1.431 6.369z" fill="#64bfed"/><path d="m141.155 502.791c.52 2.23-.01 4.57-1.43 6.369-1.42 1.79-3.589 2.83-5.869 2.83h-19.997c2.28 0 4.449-1.04 5.869-2.83 1.42-1.8 1.95-4.14 1.43-6.369-3.09-13.219-2.53-25.398-2.03-36.148.66-14.489 1.29-28.188-8.279-38.207-8.609-9.009-23.866-13.419-50.172-14.249 3.17-.11 6.499-.16 9.999-.16 32.535 0 50.522 4.31 60.171 14.409 9.569 10.019 8.939 23.718 8.279 38.207-.501 10.75-1.061 22.929 2.029 36.148z" fill="#00aae8"/><path d="m103.347 376.487c-.664-3.548-3.762-6.119-7.371-6.119h-50.6c-3.609 0-6.707 2.572-7.371 6.12-2.365 12.636-3.17 30.128 6.431 41.694 5.972 7.193 14.8 10.841 26.24 10.841s20.269-3.648 26.24-10.842c9.601-11.566 8.796-29.057 6.431-41.694z" fill="#d58678"/><g><g fill="#00aae8"><path d="m40.727 458.864c-4.111.481-7.054 4.206-6.577 8.317.024.205 2.325 20.67-2.664 34.821-1.377 3.906.673 8.189 4.579 9.566.825.291 1.666.429 2.493.429 3.091 0 5.986-1.927 7.072-5.008 6.159-17.47 3.53-40.582 3.415-41.557-.483-4.111-4.202-7.048-8.318-6.568z"/><path d="m109.865 502.002c-4.958-14.064-2.715-34.366-2.665-34.815.485-4.113-2.457-7.841-6.569-8.326-4.115-.488-7.841 2.456-8.325 6.57-.115.976-2.744 24.088 3.415 41.557 1.086 3.082 3.981 5.008 7.072 5.008.828 0 1.669-.138 2.493-.429 3.906-1.376 5.956-5.659 4.579-9.565z"/></g></g><path d="m91.547 333.29c-21.709-16.293-55.47-5.272-56.896-4.795-1.888.632-3.447 1.988-4.334 3.77-.497.997-12.016 24.628.779 41.55 7.369 9.745 20.331 14.586 39.298 14.586 9.202 0 19.82-1.14 31.893-3.412 3.435-.646 5.968-3.58 6.107-7.073.816-20.609-4.852-35.623-16.847-44.626z" fill="#edba75"/></g><g><g><path d="m325.118 449.167c-1.42 1.79-3.589 2.83-5.879 2.83h-126.351c-2.28 0-4.449-1.04-5.869-2.83-1.42-1.8-1.95-4.14-1.43-6.369 3.09-13.219 2.53-25.398 2.03-36.148-.66-14.489-1.29-28.188 8.279-38.207 8.609-9.009 23.866-13.419 50.172-14.249 3.17-.11 6.499-.16 9.999-.16 32.525 0 50.522 4.31 60.171 14.409 9.569 10.019 8.939 23.718 8.279 38.207-.5 10.749-1.06 22.928 2.03 36.148.518 2.229-.011 4.569-1.431 6.369z" fill="#918291"/><g fill="#685e68"><path d="m325.118 449.167c-1.42 1.79-3.589 2.83-5.879 2.83h-19.987c2.28 0 4.449-1.04 5.869-2.83 1.42-1.8 1.95-4.14 1.43-6.369-3.09-13.219-2.53-25.398-2.03-36.148.66-14.489 1.29-28.188-8.279-38.207-8.609-9.009-23.866-13.419-50.173-14.249 3.17-.11 6.499-.16 9.999-.16 32.525 0 50.522 4.31 60.171 14.409 9.569 10.019 8.939 23.718 8.279 38.207-.5 10.749-1.06 22.928 2.03 36.148.519 2.229-.01 4.569-1.43 6.369z"/><g><path d="m226.112 398.868c-4.113.485-7.054 4.212-6.569 8.326.669 5.682 1.496 23.013-2.664 34.815-1.377 3.906.673 8.189 4.579 9.566.825.291 1.666.429 2.493.429 3.091 0 5.986-1.927 7.072-5.008 6.159-17.47 3.529-40.582 3.414-41.557-.485-4.115-4.214-7.055-8.325-6.571z"/><path d="m295.256 442.008c-4.988-14.151-2.687-34.616-2.663-34.821.481-4.111-2.46-7.835-6.57-8.319-4.12-.488-7.841 2.456-8.325 6.57-.115.976-2.744 24.088 3.414 41.557 1.086 3.082 3.98 5.008 7.072 5.008.827 0 1.669-.138 2.493-.429 3.906-1.376 5.956-5.659 4.579-9.566z"/></g></g></g><path d="m300.573 276.811c-10.989-9.011-25.953-10.909-44.505-5.655-18.552-5.255-33.517-3.356-44.505 5.655-21.47 17.607-17.826 55.667-17.66 57.278.351 3.414 2.975 6.155 6.371 6.653.454.067 11.32 1.643 28.795 2.661.145.008.29.013.436.013h53.126c.146 0 .291-.004.436-.013 17.474-1.018 28.34-2.594 28.794-2.661 3.396-.498 6.021-3.238 6.372-6.653.166-1.611 3.81-39.672-17.66-57.278z" fill="#d79787"/><path d="m284.892 307.057c-.861-1.926-2.494-3.401-4.497-4.061-2.004-.662-4.193-.447-6.031.589-17.629 9.939-42.312 6.894-42.619 6.854-3.956-.519-7.615 2.14-8.348 6.056-2.365 12.636-3.17 30.128 6.431 41.694 5.972 7.193 14.8 10.841 26.24 10.841 15.595 0 23.799-7.606 27.935-13.986 9.085-14.014 6.829-34.699.889-47.987z" fill="#ffddce"/></g><g><g><path d="m510.375 509.154c-1.42 1.79-3.589 2.83-5.869 2.83h-126.352c-2.29 0-4.459-1.04-5.879-2.83-1.42-1.8-1.95-4.14-1.43-6.369 3.09-13.219 2.53-25.398 2.04-36.148-.67-14.489-1.3-28.188 8.269-38.207 8.609-9.009 23.866-13.419 50.172-14.249 3.169-.11 6.499-.16 9.999-.16 32.535 0 50.522 4.31 60.171 14.409 9.569 10.019 8.939 23.718 8.279 38.207-.5 10.749-1.06 22.928 2.03 36.148.519 2.23-.011 4.569-1.43 6.369z" fill="#ff5b5b"/><path d="m511.804 502.785c.52 2.23-.01 4.57-1.43 6.369-1.42 1.79-3.589 2.83-5.869 2.83h-19.997c2.28 0 4.449-1.04 5.869-2.83 1.42-1.8 1.95-4.14 1.43-6.369-3.09-13.219-2.53-25.398-2.03-36.148.66-14.489 1.29-28.188-8.279-38.207-8.609-9.009-23.866-13.419-50.172-14.249 3.169-.11 6.499-.16 9.999-.16 32.535 0 50.522 4.31 60.171 14.409 9.569 10.019 8.939 23.718 8.279 38.207-.5 10.749-1.06 22.929 2.029 36.148z" fill="#ff3636"/><g><g fill="#ff3636"><path d="m411.377 458.857c-4.111.481-7.054 4.206-6.577 8.317.024.205 2.325 20.67-2.664 34.821-1.377 3.906.673 8.189 4.579 9.566.825.291 1.666.429 2.493.429 3.091 0 5.986-1.927 7.072-5.008 6.159-17.47 3.53-40.582 3.415-41.557-.483-4.11-4.202-7.047-8.318-6.568z"/><path d="m480.515 501.996c-4.958-14.064-2.715-34.366-2.665-34.815.485-4.113-2.457-7.841-6.569-8.326-4.115-.488-7.841 2.456-8.325 6.57-.115.976-2.744 24.088 3.415 41.557 1.086 3.082 3.981 5.008 7.072 5.008.828 0 1.669-.138 2.493-.429 3.906-1.377 5.956-5.659 4.579-9.565z"/></g></g></g><path d="m475.467 373.858c-.664-3.549-3.761-6.121-7.371-6.121h-53.543c-3.61 0-6.707 2.572-7.371 6.121-2.487 13.296-3.339 31.689 6.721 43.806 6.231 7.507 15.458 11.313 27.422 11.313s21.19-3.806 27.423-11.313c10.059-12.116 9.206-30.51 6.719-43.806z" fill="#ffba84"/><path d="m476.2 330.427c-10.226-7.926-24.336-9.538-34.875-4.504-10.536-5.032-24.65-3.422-34.875 4.504-13.313 10.321-16.333 28.181-8.075 47.775 1.032 2.448 3.282 4.168 5.915 4.521.96.129 21.215 2.646 37.035-10.371 11.214 9.226 24.656 10.648 31.875 10.648 2.964 0 4.88-.24 5.159-.277 2.633-.353 4.883-2.072 5.915-4.521 8.258-19.594 5.239-37.454-8.074-47.775z" fill="#918291"/></g></g><path d="m471.67 288.471c-4.141 0-7.499-3.358-7.499-7.5 0-13.364-3.491-23.217-10.672-30.123-17.522-16.849-55.893-15.339-92.999-13.878-40.181 1.58-78.135 3.075-98.43-16.439-2.29-2.202-4.292-4.626-6.003-7.269-1.711 2.642-3.712 5.067-6.003 7.269-20.294 19.516-58.247 18.021-98.43 16.439-37.106-1.46-75.476-2.971-92.998 13.878-7.182 6.905-10.672 16.758-10.672 30.123 0 4.142-3.357 7.5-7.499 7.5s-7.499-3.358-7.499-7.5c0-17.417 5.139-31.189 15.276-40.936 22.126-21.276 63.738-19.637 103.983-18.054 35.277 1.389 71.754 2.825 87.445-12.264 5.987-5.757 8.898-13.909 8.898-24.92 0-4.142 3.357-7.5 7.499-7.5 4.141 0 7.499 3.358 7.499 7.5 0 11.012 2.911 19.163 8.898 24.92 15.691 15.089 52.167 13.653 87.446 12.264 40.241-1.584 81.857-3.222 103.983 18.054 10.136 9.746 15.276 23.519 15.276 40.936 0 4.142-3.357 7.5-7.499 7.5z" fill="#e0dce0"/></g></svg>